<svg xmlns="http://www.w3.org/2000/svg" width="512" height="512" viewBox="0 0 512 512" fill="none" role="img" aria-label="FreshCart">
  <rect width="512" height="512" fill="#157347"/>
  <g transform="translate(140 140) scale(4.66)">
    <path d="M12 22h24l-2.6 12.2a3 3 0 0 1-2.94 2.38H17.54a3 3 0 0 1-2.94-2.38L12 22Z" fill="#ffffff"/>
    <path d="M18.5 26.5v6M24 26.5v6M29.5 26.5v6" stroke="#157347" stroke-width="2.2" stroke-linecap="round"/>
    <path d="M24.5 21.5c-.4-5.4 2.8-9.6 8.9-10.4.5 6.3-3 10-8.9 10.4Z" fill="#ee7112"/>
    <path d="M24.6 21.4c1.6-3.4 4-5.6 6.6-6.9" stroke="#ffffff" stroke-width="1.4" stroke-linecap="round"/>
  </g>
</svg>
